<svg width="78" height="78" viewBox="0 0 78 78" fill="none" xmlns="http://www.w3.org/2000/svg">
<path fill-rule="evenodd" clip-rule="evenodd" d="M4.33333 0C3.18406 0 2.08186 0.456546 1.2692 1.2692C0.456546 2.08186 0 3.18406 0 4.33333V60.6667C0 61.8159 0.456546 62.9181 1.2692 63.7308C2.08186 64.5435 3.18406 65 4.33333 65H36.8333V73.6667H21.6667V78H56.3333V73.6667H41.1667V65H73.6667C74.8159 65 75.9181 64.5435 76.7308 63.7308C77.5435 62.9181 78 61.8159 78 60.6667V4.33333C78 3.18406 77.5435 2.08186 76.7308 1.2692C75.9181 0.456546 74.8159 0 73.6667 0H4.33333ZM71.5 60.6667V8.66667H6.5V60.6667H13V54.99C13 50.609 18.2152 44.9757 24.31 42.5837C24.3273 43.4807 24.4118 45.9593 24.5353 46.943C24.6675 48.0047 24.8495 49.062 25.0467 49.9308C25.09 50.1186 25.1348 50.2992 25.181 50.4725C24.3746 50.965 23.7514 51.7076 23.4064 52.5873C23.0613 53.4669 23.0134 54.4352 23.2699 55.3446C23.5264 56.254 24.0733 57.0545 24.8271 57.6242C25.5809 58.1939 26.5003 58.5015 27.4452 58.5C28.5455 58.4999 29.6046 58.0812 30.4075 57.3289C31.2105 56.5765 31.6972 55.5469 31.7688 54.4489C31.8405 53.3509 31.4918 52.2668 30.7935 51.4165C30.0951 50.5662 29.0995 50.0133 28.0085 49.8702C27.9556 49.6763 27.9072 49.4813 27.8633 49.2852C27.69 48.529 27.5253 47.5713 27.4018 46.5855C27.1982 44.9518 27.0963 43.2423 27.2198 41.5957C27.7774 41.4368 28.3335 41.2938 28.8882 41.1667C29.4493 41.0388 29.8285 42.0117 30.1058 42.7223C30.1925 42.939 30.2662 43.1318 30.3333 43.2597C33.1608 43.2597 36.0815 43.277 39 43.2965C41.9185 43.3138 44.8392 43.3333 47.6667 43.3333C47.749 43.1752 47.8357 42.9498 47.931 42.7028C48.2127 41.9662 48.568 41.0432 49.1118 41.1667C49.8875 41.3429 50.6617 41.5516 51.4345 41.7928C51.4345 42.3518 51.441 42.9209 51.454 43.5002C51.4908 45.5975 51.5277 47.7837 51.012 49.8333H49.1118C48.8434 49.834 48.5804 49.909 48.352 50.0502C48.1237 50.1913 47.9389 50.393 47.8183 50.6328L46.3753 53.521C46.2778 53.7224 46.226 53.9429 46.2237 54.1667V57.0548C46.2237 57.8543 46.8693 58.5 47.6667 58.5H50.5548V55.6118H49.1118V54.5068L50.0045 52.7215H53.9955L54.8882 54.5068V55.6118H53.4452V58.5H56.3333C56.5231 58.5 56.711 58.4626 56.8864 58.39C57.0617 58.3174 57.221 58.2109 57.3552 58.0767C57.4894 57.9425 57.5959 57.7832 57.6685 57.6079C57.7411 57.4325 57.7785 57.2446 57.7785 57.0548V54.1667C57.7762 53.9429 57.7244 53.7224 57.6268 53.521L56.1817 50.6307C56.0608 50.3912 55.8759 50.19 55.6476 50.0492C55.4192 49.9085 55.1564 49.8338 54.8882 49.8333H53.9717C54.431 47.5367 54.4613 45.227 54.4592 42.8957C60.2182 45.331 65 50.7953 65 54.99V60.6667H71.5ZM27.4452 55.6335C27.6364 55.6324 27.8254 55.5935 28.0016 55.5191C28.1777 55.4447 28.3374 55.3362 28.4714 55.1999C28.6055 55.0636 28.7114 54.9022 28.7829 54.7249C28.8544 54.5475 28.8902 54.3578 28.8882 54.1667C28.8902 53.9755 28.8544 53.7858 28.7829 53.6085C28.7114 53.4312 28.6055 53.2697 28.4714 53.1334C28.3374 52.9971 28.1777 52.8887 28.0016 52.8143C27.8254 52.7399 27.6364 52.701 27.4452 52.6998C27.2538 52.7007 27.0645 52.7394 26.8881 52.8136C26.7117 52.8879 26.5518 52.9963 26.4175 53.1327C26.2832 53.269 26.1772 53.4305 26.1055 53.608C26.0339 53.7854 25.998 53.9753 26 54.1667C26 54.9965 26.6673 55.6335 27.4452 55.6335ZM39 6.5C39.5746 6.5 40.1257 6.27173 40.5321 5.8654C40.9384 5.45907 41.1667 4.90797 41.1667 4.33333C41.1667 3.7587 40.9384 3.2076 40.5321 2.80127C40.1257 2.39494 39.5746 2.16667 39 2.16667C38.4254 2.16667 37.8743 2.39494 37.4679 2.80127C37.0616 3.2076 36.8333 3.7587 36.8333 4.33333C36.8333 4.90797 37.0616 5.45907 37.4679 5.8654C37.8743 6.27173 38.4254 6.5 39 6.5Z" fill="#004A99"/>
<path d="M52 26C52 29.4478 50.6304 32.7544 48.1924 35.1924C45.7544 37.6304 42.4478 39 39 39C35.5522 39 32.2456 37.6304 29.8076 35.1924C27.3696 32.7544 26 29.4478 26 26C26 22.5522 27.3696 19.2456 29.8076 16.8076C32.2456 14.3696 35.5522 13 39 13C42.4478 13 45.7544 14.3696 48.1924 16.8076C50.6304 19.2456 52 22.5522 52 26Z" fill="#004A99"/>
</svg>
