<svg width="59" height="74" viewBox="0 0 59 74" fill="none" xmlns="http://www.w3.org/2000/svg">
<path d="M0 0H7.33333V7.33333C7.33333 12.6133 9.82667 16.9033 14.2267 21.1933C17.38 24.2367 21.5967 27.17 25.9967 30.0667L19.2867 34.43C15.6567 31.9733 12.1367 29.3333 9.16667 26.4367C3.92333 21.34 0 15.0333 0 7.33333V0ZM51.3333 0H58.6667V7.33333C58.6667 15.0333 54.7433 21.34 49.5 26.4367C44.33 31.4967 37.73 35.6767 31.3133 39.7467C24.8967 43.8533 18.6633 47.85 14.2267 52.14C9.82667 56.43 7.33333 60.72 7.33333 66V73.3333H0V66C0 58.3 3.92333 51.9933 9.16667 46.8967C14.3367 41.8367 20.9367 37.6567 27.3533 33.5867C33.77 29.48 40.0033 25.4833 44.44 21.1933C48.84 16.9033 51.3333 12.6133 51.3333 7.33333V0ZM39.38 38.9033C43.01 41.36 46.53 44 49.5 46.8967C54.7433 51.9933 58.6667 58.3 58.6667 66V73.3333H51.3333V66C51.3333 60.72 48.84 56.43 44.44 52.14C41.2867 49.0967 37.07 46.1633 32.67 43.2667L39.38 38.9033ZM11 3.66667H47.6667V7.33333L47.4467 9.16667H11.22L11 7.33333V3.66667ZM13.4933 14.6667H45.1733C44.2933 15.9133 43.2667 17.1967 41.8733 18.5533L40.0033 20.1667H18.59L16.7933 18.5533C15.4 17.1967 14.3733 15.9133 13.4933 14.6667ZM18.6633 53.1667H40.0767L41.8733 54.78C43.2667 56.1367 44.2933 57.42 45.1733 58.6667H13.4933C14.3733 57.42 15.4 56.1367 16.7933 54.78L18.6633 53.1667ZM11.22 64.1667H47.4467L47.6667 66V69.6667H11V66L11.22 64.1667Z" fill="#004A99"/>
</svg>
