<svg width="76" height="73" viewBox="0 0 76 73" fill="none" xmlns="http://www.w3.org/2000/svg">
<path fill-rule="evenodd" clip-rule="evenodd" d="M69.4211 6.7068C74.5849 12.1078 76.6297 19.5355 75.556 26.5416H67.8407C68.9987 21.465 67.6984 15.8784 63.9398 11.9473C58.3769 6.12881 49.5049 6.12881 43.942 11.9473L37.9167 18.2496L31.8911 11.9471C26.3282 6.12863 17.4562 6.12863 11.8933 11.9471C8.13477 15.8784 6.83447 21.465 7.99241 26.5416H0.277313C-0.796559 19.5355 1.24845 12.1076 6.41199 6.70662C14.3445 -1.59002 26.8498 -2.18899 35.4422 4.91026C36.1201 5.47092 36.7646 6.07073 37.3724 6.70662L37.9167 7.2759L38.4607 6.7068C39.0778 6.06144 39.7224 5.46266 40.3909 4.91026C48.9835 -2.18899 61.4887 -1.5902 69.4211 6.7068ZM56.4259 41.7084H66.9176L37.9167 72.0416L8.91574 41.7084H19.4072L37.9167 61.0681L56.4259 41.7084ZM26.5417 10.4799L16.6113 30.3334H4.66291e-05V37.9166H21.3017L26.5417 27.4365L37.9167 50.1867L44.0515 37.9166H75.8333V30.3334H47.8433L43.6042 21.8549L37.9167 33.2264L26.5417 10.4799Z" fill="#004A99"/>
</svg>
